<svg xmlns="http://www.w3.org/2000/svg" xml:space="preserve" fill-rule="evenodd" stroke-linejoin="round" stroke-miterlimit="2" clip-rule="evenodd" viewBox="0 0 1184 1049">
  <title>Scalp Trade</title>
  <path fill="url(#a)" d="M.4 0H1183v524.6H.4z"/>
  <path fill="#fff" d="M0 523.8h1182.6v524.6H0z"/>
  <path fill="#1da40e" fill-rule="nonzero" d="M198.4 863.9h25V670.1h65.8v-21.5H132.7v21.5h65.7V864Zm126.5 0h25.3v-92.4h41l53.6 92.4h29L416.5 767v-1.6c26.6-8.3 42-25.7 42-56.5 0-38.8-23.7-60.3-71.2-60.3H325V864Zm25.3-112.3v-81.5h35.3c33 0 46.2 12.5 46.2 39.2 0 27.9-12.2 42.3-45.9 42.3h-35.6Zm137.6 112.3h24.4l22.2-62.9h86.3l22.7 62.9h26.7l-78.6-215.3h-24.7l-79 215.3ZM577 682.6h.7l35 97h-71l35.3-97Zm125.5 181.3h64.1c70 0 101.4-39.5 101.4-107.2v-6c0-68.7-36.2-102-101.7-102h-63.8v215.2Zm25.3-21.8V670.4h36c49.4 0 76.6 20.6 76.6 80.2v9.7c0 57.4-22.4 81.8-73.1 81.8h-39.5Zm182.6 21.8H1039v-21.5H935.7v-78.6h79v-21.5h-79v-72.2h102.4v-21.5H910.4V864Z"/>
  <path fill="#fff" fill-rule="nonzero" d="M106.7 371.7V306h9.5c11.1 38 30.9 56.9 59.4 56.9 12.3 0 21.6-3.8 27.7-11.2a38.2 38.2 0 0 0 9.1-24.7 35 35 0 0 0-9.7-25.6c-6.7-6.7-19.7-14.8-38.9-24.2-20.1-10-34.6-19.7-43.4-29.3a49.3 49.3 0 0 1-13.2-35 60 60 0 0 1 14.2-37.6c9.4-12 22.7-18 39.7-18 17.5 0 31.9 7.1 43.3 21.3 2.4-2.5 5.6-8.4 9.5-17.9h9v61.8h-9a84.2 84.2 0 0 0-19-38.2 42.8 42.8 0 0 0-33-16 32 32 0 0 0-23.7 9 30 30 0 0 0 1 43.7c6.5 6.6 19 14 37.3 22.3 27.7 12.5 44.6 24.7 50.8 36.6 6.2 12 9.3 23.6 9.3 34.7a56 56 0 0 1-17.2 42.4 60.4 60.4 0 0 1-43.4 16.4 66 66 0 0 1-49-22.7 55 55 0 0 0-10.8 21h-9.5Zm341.7-55.2H459c-11 38-38.7 56.9-83 56.9a98 98 0 0 1-72-29c-19.4-19.4-29-45-29-77 0-32.7 10.4-59.2 31.4-79.6 21-20.3 45.8-30.5 74.5-30.5 17.2 0 33 3.8 47.6 11.4 14.5 7.5 21.7 16.8 21.7 27.7 0 4-1.3 7.9-4 11.5a13.6 13.6 0 0 1-11.6 5.3c-10.8 0-17.4-6.2-19.8-18.8-2-9.4-5-16-9-19.7-4.3-3.8-12.5-5.7-24.7-5.7-21.8 0-38.2 7.6-49.2 22.7-11 15.2-16.5 38-16.5 68.4 0 31.4 6 56 17.7 73.7 11.8 17.8 29.7 26.6 53.6 26.6 32.3 0 52.8-14.6 61.6-43.9ZM695 328.7h9c-1.4 27.8-15 41.8-41 41.8-11 0-19.8-3-26.2-8.8a44 44 0 0 1-12.6-26.2 255 255 0 0 1-44.5 26.2 91.6 91.6 0 0 1-36 8.8c-13.5 0-25.2-4-35-11.8a37.7 37.7 0 0 1-14.6-31c0-16.7 8.2-31.4 24.5-44 16.4-12.4 39-24.6 67.8-36.5l37.8-15.4V222c0-13.8-.9-23.8-2.7-30a30.8 30.8 0 0 0-13.9-16.6 53.3 53.3 0 0 0-29.5-7.3c-24.4 0-38 8.1-40.8 24.4-2.6 16.6-9.4 24.9-20.5 24.9-10 0-14.9-4.7-14.9-14.2 0-9.3 6.6-19.2 19.8-29.9 13.2-10.6 33.7-16 61.5-16 20.7 0 36.7 3.3 48.1 9.8 11.4 6.5 19 14 22.6 22.2 3.7 8.3 5.5 21 5.5 38v80.9c0 18.9 1 31 3 36.4 1.9 5.4 6.1 8 12.6 8 10.7 0 17.4-8 20-23.9Zm-70.8-85.4L597.6 254c-42 17-63 38.6-63 64.5 0 10.2 2.7 18.5 8 24.7a26.3 26.3 0 0 0 21 9.4c7.7 0 16.6-2.5 26.7-7.5a195 195 0 0 0 34-22.7v-79.1ZM789.8 29.6v267.1c0 21.4.3 34.8.9 40.3a17 17 0 0 0 7 12.7c4 3 11.3 4.4 21.7 4.4h5.8v11.2H718.3v-11.2h6.9c9.7 0 16.7-1.3 20.8-4a16 16 0 0 0 7.5-11.4 392 392 0 0 0 1.2-42V99c0-21-1.9-34.2-5.6-39.7-3.8-5.5-12.9-8.2-27.4-8.2V40c10 0 21.6-1.1 35-3.4 13.5-2.3 22.7-4.6 27.8-6.9h5.3Zm109 127.7h6.6c2.8 9.1 4.2 20.1 4.2 33 10.4-11 21.6-19.3 33.5-24.8 12-5.4 24.7-8.2 38-8.2a91 91 0 0 1 69.1 29.2c18.4 19.4 27.6 45.1 27.6 77 0 31.3-9.3 57.4-27.7 78.4a92.4 92.4 0 0 1-72.9 31.5 87.5 87.5 0 0 1-35.5-7.5c-11.3-5-22-12.3-32.1-22v75.9c0 23 .4 37.2 1.3 42.2 1 5 3.5 8.8 7.7 11.4a51 51 0 0 0 23.7 3.7v11.3H837.8V477h7.3c11.6 0 19.1-1.6 22.6-5 3.5-3.3 5.5-7.3 6.1-12 .6-4.6.9-18 .9-40.3V238c0-21.3-.3-34.7-.9-40.2a17 17 0 0 0-7-12.7c-4-3-11.3-4.4-21.7-4.4h-7.3v-11.3c16.1-1.6 36.5-5.7 61-12.2Zm10.8 170.4a98.2 98.2 0 0 0 28 24.3 62 62 0 0 0 79.2-15.5c13.6-15.8 20.5-41 20.5-75.4 0-30-6.6-52.3-19.8-67.2a61 61 0 0 0-47.1-22.2 64 64 0 0 0-32 8.6 99.5 99.5 0 0 0-28.8 25.9v121.5Z"/>
  <defs>
    <radialGradient id="a" cx="0" cy="0" r="1" gradientTransform="matrix(476.07 -2.62 3.26 382.22 591.7 262.3)" gradientUnits="userSpaceOnUse">
      <stop offset="0" stop-color="#55d541"/>
      <stop offset="1" stop-color="#1da40e"/>
    </radialGradient>
  </defs>
</svg>
